<svg width="203" height="39" viewBox="0 0 203 39" fill="none" xmlns="http://www.w3.org/2000/svg">
<path d="M25.67 14.3C25.67 17.03 25.11 19.5033 23.99 21.72C22.87 23.9133 21.3067 25.6517 19.3 26.935L23.395 33.2H16.15L13.805 29.035C12.9417 29.175 12.0317 29.245 11.075 29.245C8.99833 29.245 7.16667 28.8133 5.58 27.95C4.01667 27.0867 2.80333 25.8733 1.94 24.31C1.07667 22.7467 0.645 20.95 0.645 18.92C0.645 16.05 1.26333 13.495 2.5 11.255C3.73667 8.99167 5.45167 7.23 7.645 5.97C9.86167 4.71 12.37 4.08 15.17 4.08C17.27 4.08 19.1133 4.51167 20.7 5.375C22.2867 6.215 23.5117 7.41666 24.375 8.98C25.2383 10.52 25.67 12.2933 25.67 14.3ZM6.63 18.29C6.63 19.97 7.09667 21.3 8.03 22.28C8.96333 23.2367 10.2817 23.715 11.985 23.715C13.525 23.715 14.8783 23.3183 16.045 22.525C17.2117 21.7317 18.11 20.67 18.74 19.34C19.3933 17.9867 19.72 16.5283 19.72 14.965C19.72 13.285 19.2533 11.9667 18.32 11.01C17.3867 10.0533 16.08 9.575 14.4 9.575C12.86 9.575 11.495 9.97167 10.305 10.765C9.13833 11.5583 8.22833 12.62 7.575 13.95C6.945 15.2567 6.63 16.7033 6.63 18.29ZM35.893 12.235C36.6397 11.325 37.573 10.59 38.693 10.03C39.8363 9.47 41.0963 9.19 42.473 9.19C44.573 9.19 46.2647 9.87833 47.548 11.255C48.8547 12.6317 49.508 14.4983 49.508 16.855C49.508 17.5783 49.438 18.36 49.298 19.2C48.948 21.2067 48.2597 22.98 47.233 24.52C46.2063 26.0367 44.9697 27.215 43.523 28.055C42.0763 28.8717 40.548 29.28 38.938 29.28C37.5847 29.28 36.4413 29 35.508 28.44C34.5747 27.88 33.8863 27.1567 33.443 26.27L31.308 38.31H25.323L30.398 9.47H36.383L35.893 12.235ZM43.243 19.2C43.313 18.8033 43.348 18.4417 43.348 18.115C43.348 16.9483 43.0097 16.0383 42.333 15.385C41.6797 14.7317 40.8397 14.405 39.813 14.405C38.623 14.405 37.538 14.8367 36.558 15.7C35.578 16.5633 34.948 17.7417 34.668 19.235C34.598 19.655 34.563 20.04 34.563 20.39C34.563 21.5333 34.8897 22.4317 35.543 23.085C36.1963 23.7383 37.0363 24.065 38.063 24.065C39.253 24.065 40.338 23.6333 41.318 22.77C42.3213 21.8833 42.963 20.6933 43.243 19.2Z" fill="#053EFF"/>
<path d="M58.8429 22.28C58.8196 22.3967 58.8079 22.5483 58.8079 22.735C58.8079 23.155 58.9246 23.4583 59.1579 23.645C59.4146 23.8317 59.8229 23.925 60.3829 23.925H62.5179L61.6079 29H58.5629C54.6429 29 52.6829 27.355 52.6829 24.065C52.6829 23.575 52.7412 22.9567 52.8579 22.21L54.2579 14.44H51.8779L52.7529 9.47H55.1329L55.9729 4.71H61.9579L61.1179 9.47H65.0379L64.1629 14.44H60.2429L58.8429 22.28ZM73.7266 13.005C74.6366 11.8383 75.675 10.9283 76.8416 10.275C78.0316 9.59833 79.2683 9.26 80.5516 9.26L79.4316 15.595H77.7866C76.2933 15.595 75.115 15.9217 74.2516 16.575C73.3883 17.205 72.8166 18.325 72.5366 19.935L70.9266 29H64.9416L68.3716 9.47H74.3566L73.7266 13.005ZM80.4723 19.2C80.8223 17.1933 81.5107 15.4317 82.5373 13.915C83.564 12.3983 84.8007 11.2317 86.2473 10.415C87.694 9.59833 89.2223 9.19 90.8323 9.19C92.209 9.19 93.364 9.47 94.2973 10.03C95.2307 10.59 95.9073 11.325 96.3273 12.235L96.8173 9.47H102.802L99.3373 29H93.3523L93.8773 26.235C93.1307 27.145 92.1857 27.88 91.0423 28.44C89.899 29 88.639 29.28 87.2623 29.28C85.8857 29.28 84.6607 28.965 83.5873 28.335C82.5373 27.705 81.7207 26.8183 81.1373 25.675C80.554 24.5083 80.2623 23.1433 80.2623 21.58C80.2623 20.8333 80.3323 20.04 80.4723 19.2ZM95.1023 19.235C95.1723 18.815 95.2073 18.43 95.2073 18.08C95.2073 16.9367 94.869 16.0383 94.1923 15.385C93.539 14.7317 92.699 14.405 91.6723 14.405C90.4823 14.405 89.3973 14.8367 88.4173 15.7C87.4373 16.54 86.819 17.7067 86.5623 19.2C86.4923 19.62 86.4573 20.005 86.4573 20.355C86.4573 21.4983 86.784 22.4083 87.4373 23.085C88.114 23.7383 88.954 24.065 89.9573 24.065C91.1473 24.065 92.2323 23.6333 93.2123 22.77C94.1923 21.9067 94.8223 20.7283 95.1023 19.235ZM104.227 19.2C104.577 17.1933 105.266 15.4317 106.292 13.915C107.319 12.3983 108.556 11.2317 110.002 10.415C111.449 9.59833 112.977 9.19 114.587 9.19C115.871 9.19 116.991 9.45833 117.947 9.995C118.927 10.5317 119.639 11.255 120.082 12.165L121.692 3.1H127.677L123.092 29H117.107L117.597 26.2C116.851 27.1333 115.917 27.88 114.797 28.44C113.677 29 112.429 29.28 111.052 29.28C109.676 29.28 108.451 28.965 107.377 28.335C106.327 27.705 105.499 26.8067 104.892 25.64C104.309 24.4733 104.017 23.1083 104.017 21.545C104.017 20.8217 104.087 20.04 104.227 19.2ZM118.857 19.235C118.927 18.815 118.962 18.43 118.962 18.08C118.962 16.9367 118.624 16.0383 117.947 15.385C117.294 14.7317 116.454 14.405 115.427 14.405C114.237 14.405 113.152 14.8367 112.172 15.7C111.192 16.54 110.574 17.7067 110.317 19.2C110.247 19.62 110.212 20.005 110.212 20.355C110.212 21.4983 110.539 22.4083 111.192 23.085C111.869 23.7383 112.709 24.065 113.712 24.065C114.902 24.065 115.987 23.6333 116.967 22.77C117.947 21.9067 118.577 20.7283 118.857 19.235ZM134.247 7.44C133.314 7.44 132.567 7.195 132.007 6.705C131.47 6.19167 131.202 5.55 131.202 4.78C131.202 3.73 131.61 2.83166 132.427 2.085C133.244 1.33833 134.235 0.964998 135.402 0.964998C136.335 0.964998 137.07 1.22166 137.607 1.735C138.144 2.225 138.412 2.86667 138.412 3.66C138.412 4.68667 138.004 5.57333 137.187 6.32C136.37 7.06667 135.39 7.44 134.247 7.44ZM136.837 9.47L133.407 29H127.422L130.852 9.47H136.837ZM153.109 9.26C155.069 9.26 156.609 9.80833 157.729 10.905C158.849 12.0017 159.409 13.53 159.409 15.49C159.409 16.1433 159.339 16.8433 159.199 17.59L157.169 29H151.219L153.109 18.395C153.179 17.9983 153.214 17.6483 153.214 17.345C153.214 16.365 152.934 15.6067 152.374 15.07C151.838 14.5333 151.079 14.265 150.099 14.265C148.933 14.265 147.953 14.6267 147.159 15.35C146.366 16.0733 145.853 17.0883 145.619 18.395V18.22L143.729 29H137.744L141.174 9.47H147.159L146.704 12.095C147.474 11.2317 148.408 10.5433 149.504 10.03C150.624 9.51667 151.826 9.26 153.109 9.26ZM172.248 9.19C173.625 9.19 174.792 9.47 175.748 10.03C176.705 10.59 177.37 11.325 177.743 12.235L178.233 9.47H184.218L180.788 28.965C180.462 30.7617 179.808 32.3833 178.828 33.83C177.872 35.3 176.577 36.4667 174.943 37.33C173.333 38.1933 171.455 38.625 169.308 38.625C166.415 38.625 164.187 37.9367 162.623 36.56C161.06 35.2067 160.36 33.3633 160.523 31.03H166.438C166.508 31.7767 166.847 32.36 167.453 32.78C168.083 33.2233 168.912 33.445 169.938 33.445C171.175 33.445 172.225 33.0833 173.088 32.36C173.952 31.66 174.523 30.5283 174.803 28.965L175.293 26.2C174.547 27.11 173.602 27.8567 172.458 28.44C171.338 29 170.09 29.28 168.713 29.28C167.337 29.28 166.112 28.965 165.038 28.335C163.988 27.705 163.16 26.8067 162.553 25.64C161.97 24.4733 161.678 23.1083 161.678 21.545C161.678 20.8217 161.748 20.04 161.888 19.2C162.238 17.1933 162.927 15.4317 163.953 13.915C164.98 12.3983 166.217 11.2317 167.663 10.415C169.11 9.59833 170.638 9.19 172.248 9.19ZM176.518 19.235C176.588 18.815 176.623 18.43 176.623 18.08C176.623 16.9367 176.285 16.0383 175.608 15.385C174.955 14.7317 174.115 14.405 173.088 14.405C171.898 14.405 170.813 14.8367 169.833 15.7C168.853 16.54 168.235 17.7067 167.978 19.2C167.908 19.62 167.873 20.005 167.873 20.355C167.873 21.4983 168.2 22.4083 168.853 23.085C169.53 23.7383 170.37 24.065 171.373 24.065C172.563 24.065 173.648 23.6333 174.628 22.77C175.608 21.9067 176.238 20.7283 176.518 19.235ZM193.203 29.28C191.663 29.28 190.275 29.035 189.038 28.545C187.825 28.055 186.868 27.3783 186.168 26.515C185.468 25.6283 185.118 24.6133 185.118 23.47C185.118 23.3067 185.142 23.015 185.188 22.595H190.963C190.917 23.3183 191.127 23.9017 191.593 24.345C192.083 24.765 192.772 24.975 193.658 24.975C194.405 24.975 195.023 24.835 195.513 24.555C196.003 24.275 196.248 23.8783 196.248 23.365C196.248 22.875 195.98 22.49 195.443 22.21C194.93 21.9067 194.067 21.545 192.853 21.125C191.593 20.705 190.532 20.2967 189.668 19.9C188.828 19.48 188.105 18.885 187.498 18.115C186.892 17.345 186.588 16.3767 186.588 15.21C186.588 14.0667 186.927 13.04 187.603 12.13C188.28 11.1967 189.225 10.4733 190.438 9.96C191.675 9.44667 193.098 9.19 194.708 9.19C196.318 9.19 197.718 9.45833 198.908 9.995C200.098 10.5083 201.02 11.2317 201.673 12.165C202.327 13.0983 202.653 14.1483 202.653 15.315L202.618 15.84H197.193C197.24 15.14 197.03 14.58 196.563 14.16C196.097 13.74 195.432 13.53 194.568 13.53C193.892 13.53 193.332 13.67 192.888 13.95C192.468 14.23 192.258 14.615 192.258 15.105C192.258 15.6183 192.538 16.05 193.098 16.4C193.682 16.7267 194.58 17.1 195.793 17.52C197.053 17.94 198.092 18.36 198.908 18.78C199.748 19.1767 200.46 19.7483 201.043 20.495C201.65 21.2183 201.953 22.1283 201.953 23.225C201.953 24.485 201.568 25.57 200.798 26.48C200.052 27.39 199.013 28.09 197.683 28.58C196.377 29.0467 194.883 29.28 193.203 29.28Z" fill="#141414"/>
</svg>
